<svg xmlns:xlink="http://www.w3.org/1999/xlink" class="_8h39" width="34" height="34" viewBox="0 0 34 34" version="1.1" xmlns="http://www.w3.org/2000/svg"><defs><linearGradient id="u_0_2_Oa" x1="1" y1="0.320808147" x2="0.018547063" y2="0.603745337"><stop stop-color="#BA00B4" offset="0%"></stop><stop stop-color="#ED1F1F" offset="100%"></stop></linearGradient><linearGradient id="u_0_2_Oa" x1="1" y1="0.320808147" x2="0.018547063" y2="0.603745337"><stop stop-color="#BA00B4" offset="0%"></stop><stop stop-color="#ED1F1F" offset="100%"></stop></linearGradient></defs><g id="ic-camera" stroke="none" stroke-width="1" fill="none" fill-rule="evenodd"><path d="M17,27 C12.581722,27 9,23.418278 9,19 C9,14.581722 12.581722,11 17,11 C21.418278,11 25,14.581722 25,19 C25,23.418278 21.418278,27 17,27 Z M17,25.1971831 C20.4226097,25.1971831 23.1971831,22.4226097 23.1971831,19 C23.1971831,15.5773903 20.4226097,12.8028169 17,12.8028169 C13.5773903,12.8028169 10.8028169,15.5773903 10.8028169,19 C10.8028169,22.4226097 13.5773903,25.1971831 17,25.1971831 Z M1,12.4632659 C1,9.46919271 3.44515499,7.04201681 6.46140652,7.04201681 C7.33275369,7.04201681 8.1833071,6.58582687 8.78021287,5.7597153 L9.89659262,4.21465696 C10.8988034,2.82760736 12.4418542,2 14.0977678,2 L19.9022322,2 C21.5581458,2 23.1011966,2.82760736 24.1034074,4.21465696 L25.2197871,5.7597153 C25.8166929,6.58582687 26.6672463,7.04201681 27.5385935,7.04201681 C30.554845,7.04201681 33,9.46919271 33,12.4632659 L33,25.7770898 C33,29.2139082 30.1932705,32 26.7309942,32 L7.26900585,32 C3.80672952,32 1,29.2139082 1,25.7770898 L1,12.4632659 Z M7.26900585,30.2352941 L26.7309942,30.2352941 C29.2114309,30.2352941 31.2222222,28.239288 31.2222222,25.7770898 L31.2222222,12.4632659 C31.2222222,10.4438129 29.5730055,8.80672269 27.5385935,8.80672269 C26.079823,8.80672269 24.6982009,8.0656968 23.7751683,6.78822898 L22.6587885,5.24317064 C21.9827046,4.30747729 20.9707224,3.76470588 19.9022322,3.76470588 L14.0977678,3.76470588 C13.0292776,3.76470588 12.0172954,4.30747729 11.3412115,5.24317064 L10.2248317,6.78822898 C9.30179915,8.0656968 7.92017704,8.80672269 6.46140652,8.80672269 C4.42699454,8.80672269 2.77777778,10.4438129 2.77777778,12.4632659 L2.77777778,25.7770898 C2.77777778,28.239288 4.78856908,30.2352941 7.26900585,30.2352941 Z" id="Combined-Shape" fill="url(&quot;#u_0_2_Oa&quot;)"></path></g></svg>