<svg xmlns="http://www.w3.org/2000/svg" xmlns:xlink="http://www.w3.org/1999/xlink" width="40" height="40" viewBox="0 0 40 40" version="1.1">
    <title>ic-close</title>
    <defs>
        <linearGradient x1="100%" y1="29.6119491%" x2="0.931693412%" y2="62.106665%" id="linearGradient-1">
            <stop stop-color="#1D0AC9" offset="0%"/>
            <stop stop-color="#BA00B4" offset="100%"/>
        </linearGradient>
    </defs>
    <g id="ic-close" stroke="none" stroke-width="1" fill="none" fill-rule="evenodd">
        <path d="M20,16.3901785 L35.6833807,0.706797782 C36.6576607,-0.267482238 38.2372807,-0.267482238 39.2115607,0.706797782 L39.2932022,0.788439253 C40.2674822,1.76271927 40.2674822,3.34233929 39.2932022,4.31661931 L23.6098215,20 L39.2932022,35.6833807 C40.2674822,36.6576607 40.2674822,38.2372807 39.2932022,39.2115607 L39.2115607,39.2932022 C38.2372807,40.2674822 36.6576607,40.2674822 35.6833807,39.2932022 L20,23.6098215 L4.31661931,39.2932022 C3.34233929,40.2674822 1.76271927,40.2674822 0.788439253,39.2932022 L0.706797782,39.2115607 C-0.267482238,38.2372807 -0.267482238,36.6576607 0.706797782,35.6833807 L16.3901785,20 L0.706797782,4.31661931 C-0.267482238,3.34233929 -0.267482238,1.76271927 0.706797782,0.788439253 L0.788439253,0.706797782 C1.76271927,-0.267482238 3.34233929,-0.267482238 4.31661931,0.706797782 L20,16.3901785 Z" id="Combined-Shape" fill="url(#linearGradient-1)" transform="translate(20.000000, 20.000000) rotate(-270.000000) translate(-20.000000, -20.000000) "/>
    </g>
</svg>