<svg xmlns:xlink="http://www.w3.org/1999/xlink" class="_8h39" width="28" height="32" viewBox="0 0 21 24" version="1.1" xmlns="http://www.w3.org/2000/svg"><g id="ic-audio-effects" stroke="none" stroke-width="1" fill="none" fill-rule="evenodd"><path fill-rule="evenodd" clip-rule="evenodd" d="M18.4044 2.32987C18.7131 2.26971 19 2.50612 19 2.82064V6.19224L8 8.30567V4.76935C8 4.53009 8.16951 4.32435 8.40436 4.27859L18.4044 2.32987ZM8 10.3422V20V20.0001L8 20.0033C7.99822 22.2109 6.20804 24 4 24C1.79086 24 0 22.2091 0 20C0 17.7909 1.79086 16 4 16C4.72857 16 5.41165 16.1948 6 16.5351V4.76935C6 3.57301 6.84756 2.54434 8.02182 2.31551L18.0218 0.366795C19.5654 0.0660006 21 1.24805 21 2.82064V17.4668C21 17.5272 20.9946 17.5864 20.9844 17.6439C20.9947 17.7612 21 17.88 21 18C21 20.2091 19.2091 22 17 22C14.7909 22 13 20.2091 13 18C13 15.7909 14.7909 14 17 14C17.7286 14 18.4117 14.1948 19 14.5351V8.22882L8 10.3422ZM4 18C5.10457 18 6 18.8954 6 20C6 21.1046 5.10457 22 4 22C2.89543 22 2 21.1046 2 20C2 18.8954 2.89543 18 4 18ZM15 18C15 16.8954 15.8954 16 17 16C18.1046 16 19 16.8954 19 18C19 19.1046 18.1046 20 17 20C15.8954 20 15 19.1046 15 18Z" fill="#000000" id="Combined-Shape"></path></g></svg>