<svg xmlns:xlink="http://www.w3.org/1999/xlink" class="_8h39" width="44" height="44" viewBox="2 0 37 37" version="1.1" xmlns="http://www.w3.org/2000/svg"><defs><linearGradient id="u_0_4_4g" x1="0.982169615" y1="0.296119491" x2="0.0178303849" y2="0.624122633"><stop stop-color="#ED1F1F" offset="0%"></stop><stop stop-color="#F7D440" offset="100%"></stop></linearGradient><linearGradient id="u_0_4_4g" x1="0.982169615" y1="0.296119491" x2="0.0178303849" y2="0.624122633"><stop stop-color="#ED1F1F" offset="0%"></stop><stop stop-color="#F7D440" offset="100%"></stop></linearGradient></defs><g id="ic-make-it-yours" stroke="none" stroke-width="1" fill="none" fill-rule="evenodd"><path fill-rule="evenodd" clip-rule="evenodd" fill="url(&quot;#u_0_4_4g&quot;)" d="M28.1657 14.3096C27.9541 13.7994 28.1962 13.2144 28.7063 13.0028C29.2165 12.7912 29.8016 13.0333 30.0131 13.5435C30.6618 15.1077 31 16.7912 31 18.52C31 25.6997 25.1797 31.52 18 31.52C10.8203 31.52 5 25.6997 5 18.52C5 11.3404 10.8203 5.52002 18 5.52002C19.7288 5.52002 21.4123 5.8582 22.9766 6.5069C23.4867 6.71846 23.7288 7.30352 23.5172 7.81368C23.3057 8.32384 22.7206 8.5659 22.2104 8.35434C20.888 7.80592 19.4648 7.52002 18 7.52002C11.9249 7.52002 7 12.4449 7 18.52C7 24.5951 11.9249 29.52 18 29.52C24.0751 29.52 29 24.5951 29 18.52C29 17.0553 28.7141 15.6321 28.1657 14.3096ZM25.3333 9.52002C25.3333 9.29002 25.1467 9.10335 24.9167 9.10335C24.6867 9.10335 24.5 9.29002 24.5 9.52002C24.5 10.7525 24.0658 11.1867 22.8333 11.1867C22.6033 11.1867 22.4167 11.3734 22.4167 11.6034C22.4167 11.8334 22.6033 12.02 22.8333 12.02C24.0658 12.02 24.5 12.4542 24.5 13.6867C24.5 13.9167 24.6867 14.1034 24.9167 14.1034C25.1467 14.1034 25.3333 13.9167 25.3333 13.6867C25.3333 12.4542 25.7675 12.02 27 12.02C27.23 12.02 27.4167 11.8334 27.4167 11.6034C27.4167 11.3734 27.23 11.1867 27 11.1867C25.7675 11.1867 25.3333 10.7525 25.3333 9.52002ZM21 17.02C21 17.8484 21.6716 18.52 22.5 18.52C23.3284 18.52 24 17.8484 24 17.02C24 16.1916 23.3284 15.52 22.5 15.52C21.6716 15.52 21 16.1916 21 17.02ZM13.5 15.52C12.6716 15.52 12 16.1916 12 17.02C12 17.8484 12.6716 18.52 13.5 18.52C14.3284 18.52 15 17.8484 15 17.02C15 16.1916 14.3284 15.52 13.5 15.52ZM31.5833 8.43669C30.3508 8.43669 29.9167 8.87085 29.9167 10.1034C29.9167 10.3334 29.73 10.52 29.5 10.52C29.27 10.52 29.0833 10.3334 29.0833 10.1034C29.0833 8.87085 28.6492 8.43669 27.4167 8.43669C27.1867 8.43669 27 8.25002 27 8.02002C27 7.79002 27.1867 7.60335 27.4167 7.60335C28.6492 7.60335 29.0833 7.16919 29.0833 5.93669C29.0833 5.70669 29.27 5.52002 29.5 5.52002C29.73 5.52002 29.9167 5.70669 29.9167 5.93669C29.9167 7.16919 30.3508 7.60335 31.5833 7.60335C31.8133 7.60335 32 7.79002 32 8.02002C32 8.25002 31.8133 8.43669 31.5833 8.43669ZM21.4329 22.2276C20.5324 23.0962 19.2517 23.6034 17.8746 23.6034C16.4975 23.6034 15.2168 23.0962 14.3163 22.2276C14.1704 22.0869 14.049 22.0072 13.9123 21.9679C13.8184 21.9409 13.7547 21.9367 13.5963 21.9367C12.7628 21.9367 12.2981 22.8417 12.8853 23.4115C14.1517 24.6402 15.948 25.3534 17.8746 25.3534C19.8012 25.3534 21.5975 24.6402 22.8638 23.4115C23.451 22.8417 22.9864 21.9367 22.1529 21.9367C21.9944 21.9367 21.9308 21.9409 21.8368 21.9679C21.7002 22.0072 21.5788 22.0869 21.4329 22.2276Z" id="Combined-Shape"></path></g></svg>