<svg xmlns:xlink="http://www.w3.org/1999/xlink" class="_8irc" width="34" height="34" viewBox="0 0 34 34" version="1.1" xmlns="http://www.w3.org/2000/svg"><g id="ic-search-active" stroke="none" stroke-width="1" fill="none" fill-rule="evenodd"><path d="M22.9147694,24.3590726 C20.5928616,26.3502272 17.5752123,27.5531915 14.2765957,27.5531915 C6.94413439,27.5531915 1,21.6090571 1,14.2765957 C1,6.94413439 6.94413439,1 14.2765957,1 C21.6090571,1 27.5531915,6.94413439 27.5531915,14.2765957 C27.5531915,17.5752123 26.3502272,20.5928616 24.3590726,22.9147694 L32.700875,31.2565718 C33.0997083,31.6554051 33.0997083,32.3020417 32.700875,32.700875 C32.3020417,33.0997083 31.6554051,33.0997083 31.2565718,32.700875 L22.9147694,24.3590726 Z M14.2765957,25.5106383 C20.4809861,25.5106383 25.5106383,20.4809861 25.5106383,14.2765957 C25.5106383,8.07220536 20.4809861,3.04255319 14.2765957,3.04255319 C8.07220536,3.04255319 3.04255319,8.07220536 3.04255319,14.2765957 C3.04255319,20.4809861 8.07220536,25.5106383 14.2765957,25.5106383 Z" id="Combined-Shape" fill="#000000"></path></g></svg>