<svg xmlns:xlink="http://www.w3.org/1999/xlink" class="_8irc" width="32" height="32" viewBox="0 0 32 32" version="1.2" fill="none" xmlns="http://www.w3.org/2000/svg"><g id="ic-shopping-active" stroke="none" stroke-width="1" fill="none" fill-rule="evenodd"><path d="M16 2C14.9505 2 13.9367 2.43123 13.1837 3.21066C12.4295 3.99127 12 5.05713 12 6.17544V7H20V6.17544C20 5.05713 19.5705 3.99127 18.8163 3.21066C18.0633 2.43123 17.0495 2 16 2ZM10 6.17544V7H6.46939C5.21763 7 4.09757 7.3688 3.29015 8.17656C2.4883 8.97875 2.11813 10.0905 2.11307 11.3369L1.5 23.6579V23.6828C1.5 28.4615 4.90975 32 9.70722 32H22.2928C27.0863 32 30.5076 28.479 30.5 23.695L30.5 23.6709L29.8835 11.3091C29.8785 10.0632 29.5092 8.95559 28.7044 8.15897C27.8955 7.35836 26.7763 7 25.5306 7H22V6.17544C22 4.54852 21.3759 2.9816 20.2547 1.82104C19.1324 0.659308 17.6026 0 16 0C14.3974 0 12.8676 0.659308 11.7453 1.82104C10.6241 2.9816 10 4.54852 10 6.17544ZM6.46939 9H11H21H25.5306C26.4017 9 26.9589 9.24535 27.2974 9.58039C27.6343 9.91387 27.8836 10.464 27.8836 11.3351V11.3601L28.5 23.7216C28.4951 27.4152 25.9451 30 22.2928 30H9.70722C6.05905 30 3.51107 27.4054 3.50004 23.7069L4.11302 11.3877V11.3628C4.11302 10.492 4.36308 9.93221 4.70467 9.59047C5.04625 9.24875 5.60437 9 6.46939 9ZM12 13C12 12.4477 11.5523 12 11 12C10.4477 12 10 12.4477 10 13C10 14.5913 10.6321 16.1174 11.7574 17.2426C12.8826 18.3679 14.4087 19 16 19C17.5913 19 19.1174 18.3679 20.2426 17.2426C21.3679 16.1174 22 14.5913 22 13C22 12.4477 21.5523 12 21 12C20.4477 12 20 12.4477 20 13C20 14.0609 19.5786 15.0783 18.8284 15.8284C18.0783 16.5786 17.0609 17 16 17C14.9391 17 13.9217 16.5786 13.1716 15.8284C12.4214 15.0783 12 14.0609 12 13Z" id="Combined-Shape" fill="#000000"></path></g></svg>