<svg xmlns:xlink="http://www.w3.org/1999/xlink" class="_8h39" width="34" height="34" viewBox="0 0 34 34" version="1.1" xmlns="http://www.w3.org/2000/svg"><g id="ic-sticker-active" stroke="none" stroke-width="1" fill="none" fill-rule="evenodd"><path d="M20.3259574,31.1662979 L30.1138723,21.5846809 C30.1111489,21.5846809 30.1091064,21.5853617 30.106383,21.5853617 L27.4238298,21.5853617 C23.5137021,21.5853617 20.3320851,24.7669787 20.3320851,28.6777872 L20.3320851,31.106383 C20.3320851,31.1268085 20.3259574,31.1458723 20.3259574,31.1662979 Z M13.8497021,31.9574468 L17.4384681,31.9574468 C17.9075745,31.9574468 18.2895319,31.5754894 18.2895319,31.106383 L18.2895319,28.6777872 C18.2895319,27.5734468 18.4965106,26.5188085 18.8566809,25.538383 C18.1846809,25.7106383 17.4902128,25.8066383 16.7828085,25.8066383 C14.4379574,25.8066383 12.1870638,24.811234 10.6088511,23.0737021 C10.2289362,22.6563404 10.2595745,22.0108936 10.677617,21.6316596 C11.0942979,21.2517447 11.7411064,21.2830638 12.1196596,21.7004255 C13.3125106,23.0117447 15.0119149,23.7640851 16.7828085,23.7640851 C18.3746383,23.7640851 19.893617,23.1697021 21.0605957,22.0891915 C21.1082553,22.045617 21.1668085,22.0251915 21.2199149,21.9918298 C22.851234,20.477617 25.0279149,19.5428085 27.4238298,19.5428085 L30.106383,19.5428085 C30.5754894,19.5428085 30.9574468,19.1615319 30.9574468,18.6917447 L30.9574468,16.2522553 L30.9574468,11.1349787 C30.9574468,7.22417021 27.7758298,4.04255319 23.8650213,4.04255319 L10.1349787,4.04255319 C6.22417021,4.04255319 3.04255319,7.22417021 3.04255319,11.1349787 L3.04255319,24.8650213 C3.04255319,28.7758298 6.22417021,31.9574468 10.1349787,31.9574468 L13.8497021,31.9574468 Z M23.8650213,2 C28.9019574,2 33,6.09804255 33,11.1349787 L33,16.2522553 L33,18.6917447 L33,19.8764255 C33,20.9828085 32.5458723,22.0619574 31.7554043,22.8360851 L21.5589787,32.8180426 C20.7800851,33.5799149 19.7513191,34 18.6612766,34 L17.4384681,34 L13.8497021,34 L10.1349787,34 C5.09804255,34 1,29.9019574 1,24.8650213 L1,11.1349787 C1,6.09804255 5.09804255,2 10.1349787,2 L23.8650213,2 Z M12.9978213,14.9192851 C12.9978213,16.1257532 12.0201191,17.1034553 10.8136511,17.1034553 C9.60718298,17.1034553 8.6288,16.1257532 8.6288,14.9192851 C8.6288,13.712817 9.60718298,12.7351149 10.8136511,12.7351149 C12.0201191,12.7351149 12.9978213,13.712817 12.9978213,14.9192851 Z M23.2178723,17.1037957 C22.0114043,17.1037957 21.0337021,16.1254128 21.0337021,14.9196255 C21.0337021,13.7131574 22.0114043,12.7347745 23.2178723,12.7347745 C24.4236596,12.7347745 25.4020426,13.7131574 25.4020426,14.9196255 C25.4020426,16.1254128 24.4236596,17.1037957 23.2178723,17.1037957 Z" id="Combined-Shape" fill="#000000"></path></g></svg>